#!OML:ASF X:\für Bonn\!DataBase\2005_08_10_Bjorn_Final\c3d\bjorn.ASF
:FULLY-SPECIFIED
:DEGREES
31
root -28.6017 19.1172 -24.1625 -1435.65 -12.9497 0.122067
lowerback -5.27462 2.44123 1.35682
upperback 8.33297 3.35915 -2.1622
thorax 12.1747 1.85351 -2.57815
lowerneck -1.22095 -1.45908 1.62968
upperneck 15.9506 -2.10153 0.0507292
head 4.97147 -0.937944 -0.351979
rclavicle 6.52014e-014 -3.22031e-014
rhumerus -26.6219 -5.63753 -94.8177
rradius 48.0518
rwrist -1.52392
rhand -18.2228 18.9984
rfingers 7.12502
rthumb 8.05529 -10.8281
lclavicle 6.52014e-014 -3.22031e-014
lhumerus -39.678 -26.8709 96.3437
lradius 69.4594
lwrist -11.8397
lhand -34.7615 -22.5063
lfingers 7.12502
lthumb -7.91461 7.32557
rfemur -14.2923 -15.2368 17.0615
rtibia 34.1481
rfoot -14.8323 28.5495
rtoes 5.36992
lfemur -13.9296 4.08439 -21.4597
ltibia 34.5444
lfoot -19.3999 -3.79327
ltoes -6.55524
32
root -28.5978 19.1139 -24.144 -1435.59 -12.9704 0.0830293
lowerback -5.2916 2.42256 1.25334
upperback 8.31271 3.34664 -2.17927
thorax 12.1549 1.83861 -2.54044
lowerneck -1.1032 -1.46375 1.75124
upperneck 15.7802 -2.10562 0.0113309
head 4.89741 -0.937128 -0.382319
rclavicle 2.74323e-014 -1.19271e-014
rhumerus -26.7229 -6.02688 -94.8006
rradius 47.7802
rwrist -1.52614
rhand -18.3146 19.0517
rfingers 7.12502
rthumb 7.96667 -10.7782
lclavicle 2.74323e-014 -1.19271e-014
lhumerus -39.7735 -26.841 96.3012
lradius 69.219
lwrist -11.4837
lhand -34.6131 -22.5192
lfingers 7.12502
lthumb -7.77139 7.31795
rfemur -14.3133 -15.1953 17.0829
rtibia 34.1862
rfoot -14.9841 28.5351
rtoes 5.09027
lfemur -13.8298 4.01566 -21.4149
ltibia 34.3917
lfoot -19.3963 -3.98858
ltoes -5.85937
33
root -28.594 19.1098 -24.125 -1435.52 -12.9953 0.0243378
lowerback -5.32323 2.40825 1.16176
upperback 8.30624 3.33754 -2.18227
thorax 12.1602 1.82585 -2.49286
lowerneck -0.974138 -1.46882 1.84328
upperneck 15.5796 -2.1094 -0.0144151
head 4.81273 -0.93734 -0.403191
rclavicle -1.47101e-014 1.19271e-014
rhumerus -26.8129 -6.38735 -94.7577
rradius 47.5004
rwrist -1.51407
rhand -18.3715 19.0768
rfingers 7.12502
rthumb 7.91177 -10.7551
lclavicle -1.47101e-014 1.19271e-014
lhumerus -39.8426 -26.8155 96.2663
lradius 68.956
lwrist -11.2011
lhand -34.5023 -22.3712
lfingers 7.12502
lthumb -7.6644 7.46995
rfemur -14.3131 -14.9897 17.1346
rtibia 34.2145
rfoot -15.1836 28.3387
rtoes 4.69383
lfemur -13.7399 3.99954 -21.344
ltibia 34.2508
lfoot -19.4036 -4.22989
ltoes -5.24543
34
root -28.5903 19.1065 -24.1051 -1435.47 -13.0105 -0.0323918
lowerback -5.33596 2.3838 1.06783
upperback 8.30074 3.31409 -2.17718
thorax 12.1533 1.80548 -2.43815
lowerneck -0.885753 -1.46782 1.87282
upperneck 15.4249 -2.10736 -0.00580318
head 4.75014 -0.935841 -0.403528
rclavicle 7.95139e-015 -2.78299e-014
rhumerus -26.9135 -6.71532 -94.7048
rradius 47.1832
rwrist -1.50488
rhand -18.4694 19.0405
rfingers 7.12502
rthumb 7.81733 -10.7949
lclavicle 7.95139e-015 -2.78299e-014
lhumerus -39.9289 -26.7762 96.2482
lradius 68.6826
lwrist -10.8227
lhand -34.3344 -22.2683
lfingers 7.12502
lthumb -7.50232 7.57862
rfemur -14.3014 -14.7921 17.1835
rtibia 34.2381
rfoot -15.383 28.1517
rtoes 4.47223
lfemur -13.6393 4.08554 -21.2614
ltibia 34.1166
lfoot -19.3991 -4.61473
ltoes -4.56546
35
root -28.5865 19.1037 -24.0853 -1435.38 -13.0194 -0.0690938
lowerback -5.38279 2.36843 0.952373
upperback 8.27763 3.30622 -2.18086
thorax 12.1473 1.79097 -2.37736
lowerneck -0.698003 -1.46541 1.92154
upperneck 14.7967 -2.10463 0.0332133
head 5.04221 -0.932091 -0.425546
rclavicle -2.96189e-014 2.62396e-014
rhumerus -27.0027 -7.16496 -94.6398
rradius 46.8213
rwrist -1.38966
rhand -18.5293 18.9612
rfingers 7.12502
rthumb 7.75945 -10.8764
lclavicle -2.96189e-014 2.62396e-014
lhumerus -40.0473 -26.7419 96.2534
lradius 68.3742
lwrist -10.5083
lhand -34.1826 -22.0265
lfingers 7.12502
lthumb -7.35582 7.82563
rfemur -14.3308 -14.4747 17.2314
rtibia 34.2565
rfoot -15.6386 27.8295
rtoes 4.08552
lfemur -13.5952 4.19983 -21.2076
ltibia 33.9942
lfoot -19.3967 -4.95578
ltoes -3.99565
36
root -28.5833 19.1005 -24.0639 -1435.31 -13.0695 -0.106778
lowerback -5.43856 2.36425 0.819027
upperback 8.28968 3.3147 -2.16965
thorax 12.1863 1.78218 -2.2871
lowerneck -0.638826 -1.46359 1.97398
upperneck 14.6266 -2.09662 -0.0045235
head 4.96518 -0.928979 -0.445276
rclavicle -1.96797e-014 2.42517e-014
rhumerus -27.047 -7.6854 -94.5555
rradius 46.427
rwrist -1.28361
rhand -18.5588 18.9694
rfingers 7.12502
rthumb 7.73099 -10.8693
lclavicle -1.96797e-014 2.42517e-014
lhumerus -40.0971 -26.6477 96.2415
lradius 68.0112
lwrist -10.2868
lhand -33.9803 -21.8145
lfingers 7.12502
lthumb -7.16056 8.0444
rfemur -14.3228 -14.0722 17.2757
rtibia 34.2577
rfoot -15.904 27.4663
rtoes 3.60829
lfemur -13.5354 4.42434 -21.1471
ltibia 33.8967
lfoot -19.4315 -5.32827
ltoes -3.6729
37
root -28.5795 19.0976 -24.0422 -1435.22 -13.0889 -0.144333
lowerback -5.49707 2.3438 0.700697
upperback 8.27074 3.3006 -2.1727
thorax 12.1919 1.76441 -2.22462
lowerneck -0.523855 -1.45955 2.03573
upperneck 14.4698 -2.08853 -0.0146813
head 4.88248 -0.924074 -0.456637
rclavicle 3.08116e-014 -3.1408e-014
rhumerus -27.1486 -8.19715 -94.4797
rradius 46.015
rwrist -1.18857
rhand -18.552 18.9585
rfingers 7.12502
rthumb 7.73756 -10.8799
lclavicle 3.08116e-014 -3.1408e-014
lhumerus -40.1945 -26.5461 96.2079
lradius 67.6142
lwrist -10.0949
lhand -33.7929 -21.632
lfingers 7.12502
lthumb -6.97961 8.2329
rfemur -14.3225 -13.6745 17.3221
rtibia 34.2472
rfoot -16.1675 27.0837
rtoes 3.23641
lfemur -13.5054 4.6379 -21.1002
ltibia 33.8155
lfoot -19.4911 -5.63441
ltoes -3.83058
38
root -28.5748 19.0987 -24.0205 -1435.13 -13.0991 -0.177392
lowerback -5.54144 2.32135 0.566468
upperback 8.2631 3.28375 -2.15644
thorax 12.1994 1.74285 -2.13311
lowerneck -0.465497 -1.45296 2.02766
upperneck 14.3397 -2.07793 -0.00186084
head 4.82236 -0.920093 -0.448616
rclavicle 3.77691e-015 4.37326e-015
rhumerus -27.2417 -8.70158 -94.3745
rradius 45.587
rwrist -1.08415
rhand -18.5828 18.9506
rfingers 7.12502
rthumb 7.70786 -10.8889
lclavicle 3.77691e-015 4.37326e-015
lhumerus -40.2299 -26.4536 96.1902
lradius 67.1777
lwrist -9.90085
lhand -33.5372 -21.4018
lfingers 7.12502
lthumb -6.73286 8.47114
rfemur -14.3208 -13.3122 17.3676
rtibia 34.2135
rfoot -16.4065 26.6834
rtoes 2.74355
lfemur -13.499 4.87311 -21.0607
ltibia 33.7594
lfoot -19.5898 -5.88207
ltoes -4.29428
39
root -28.5712 19.0988 -23.9972 -1435.04 -13.1162 -0.190467
lowerback -5.61257 2.28416 0.39931
upperback 8.26124 3.25148 -2.14271
thorax 12.2276 1.71102 -2.02751
lowerneck -0.366947 -1.43314 2.03638
upperneck 14.174 -2.04466 -0.0241667
head 4.74082 -0.906291 -0.453827
rclavicle 2.34566e-014 -1.90833e-014
rhumerus -27.316 -9.06051 -94.2833
rradius 45.107
rwrist -1.0446
rhand -18.649 18.9972
rfingers 7.12502
rthumb 7.64397 -10.8446
lclavicle 2.34566e-014 -1.90833e-014
lhumerus -40.2511 -26.3289 96.1578
lradius 66.712
lwrist -9.7288
lhand -33.3083 -21.116
lfingers 7.12502
lthumb -6.5118 8.76394
rfemur -14.298 -12.874 17.3905
rtibia 34.1734
rfoot -16.6888 26.2415
rtoes 2.28888
lfemur -13.49 5.08681 -21.0491
ltibia 33.7111
lfoot -19.7288 -6.07699
ltoes -4.89251
